<?xml version="1.0" standalone="no"?>
<?xml-stylesheet href="wheel.css" type="text/css"?>
<!DOCTYPE svg PUBLIC "-//W3C//DTD SVG 1.1//EN"
"http://www.w3.org/Graphics/SVG/1.1/DTD/svg11.dtd">
<svg version="1.1" viewBox="0 0 380 380" xmlns="http://www.w3.org/2000/svg"><path class="success" d="&#10;M 190.0,10.0&#10;A180,180 0 0 1 207.922212387247,10.894460434227739&#10;L 198.9611061936235,100.44723021711387&#10;A90,90 0 0 0 190.0,100.0&#10;Z&#10;"><title>Substance Designer &#10003;</title></path><path class="default" d="&#10;M 207.922212387247,10.894460434227739&#10;A180,180 0 0 1 225.66630577589154,13.568952187262113&#10;L 207.83315288794577,101.78447609363106&#10;A90,90 0 0 0 198.9611061936235,100.44723021711387&#10;Z&#10;"><title>Substance Painter </title></path><path class="success" d="&#10;M 225.66630577589154,13.568952187262113&#10;A180,180 0 0 1 243.0559313939628,17.996894958494664&#10;L 216.5279656969814,103.99844747924733&#10;A90,90 0 0 0 207.83315288794577,101.78447609363106&#10;Z&#10;"><title>SynthEyes &#10003;</title></path><path class="default" d="&#10;M 243.0559313939628,17.996894958494664&#10;A180,180 0 0 1 259.91826332944504,24.134281863326635&#10;L 224.95913166472252,107.06714093166332&#10;A90,90 0 0 0 216.5279656969814,103.99844747924733&#10;Z&#10;"><title>Flame </title></path><path class="default" d="&#10;M 259.91826332944504,24.134281863326635&#10;A180,180 0 0 1 276.0857161518373,31.920116793358858&#10;L 233.04285807591864,110.96005839667943&#10;A90,90 0 0 0 224.95913166472252,107.06714093166332&#10;Z&#10;"><title>Maya </title></path><path class="default" d="&#10;M 276.0857161518373,31.920116793358858&#10;A180,180 0 0 1 291.39761045145195,41.27702062312093&#10;L 240.69880522572598,115.63851031156047&#10;A90,90 0 0 0 233.04285807591864,110.96005839667943&#10;Z&#10;"><title>MotionBuilder </title></path><path class="default" d="&#10;M 291.39761045145195,41.27702062312093&#10;A180,180 0 0 1 305.7017697435771,52.11200023858396&#10;L 247.85088487178854,121.05600011929198&#10;A90,90 0 0 0 240.69880522572598,115.63851031156047&#10;Z&#10;"><title>RV </title></path><path class="success" d="&#10;M 305.7017697435771,52.11200023858396&#10;A180,180 0 0 1 318.85603286674933,64.31737274450691&#10;L 254.42801643337467,127.15868637225346&#10;A90,90 0 0 0 247.85088487178854,121.05600011929198&#10;Z&#10;"><title>3ds Max &#10003;</title></path><path class="default" d="&#10;M 318.85603286674933,64.31737274450691&#10;A180,180 0 0 1 330.72966684424534,77.77183566542797&#10;L 260.3648334221227,133.88591783271397&#10;A90,90 0 0 0 254.42801643337467,127.15868637225346&#10;Z&#10;"><title>Deadline </title></path><path class="success" d="&#10;M 330.72966684424534,77.77183566542797&#10;A180,180 0 0 1 341.20466616713884,92.3416725041633&#10;L 265.6023330835694,141.17083625208164&#10;A90,90 0 0 0 260.3648334221227,133.88591783271397&#10;Z&#10;"><title>Fusion &#10003;</title></path><path class="success" d="&#10;M 341.20466616713884,92.3416725041633&#10;A180,180 0 0 1 350.1769255860643,107.88208167643066&#10;L 270.08846279303214,148.94104083821532&#10;A90,90 0 0 0 265.6023330835694,141.17083625208164&#10;Z&#10;"><title>Mocha Pro &#10003;</title></path><path class="success" d="&#10;M 350.1769255860643,107.88208167643066&#10;A180,180 0 0 1 357.55727475595677,124.23861561404891&#10;L 273.7786373779784,157.11930780702446&#10;A90,90 0 0 0 270.08846279303214,148.94104083821532&#10;Z&#10;"><title>Silhouette &#10003;</title></path><path class="success" d="&#10;M 357.55727475595677,124.23861561404891&#10;A180,180 0 0 1 363.2723644510022,141.24871573425906&#10;L 276.6361822255011,165.62435786712953&#10;A90,90 0 0 0 273.7786373779784,157.11930780702446&#10;Z&#10;"><title>Cerebro &#10003;</title></path><path class="success" d="&#10;M 363.2723644510022,141.24871573425906&#10;A180,180 0 0 1 367.26539554219744,158.74332801995254&#10;L 278.6326977710987,174.37166400997626&#10;A90,90 0 0 0 276.6361822255011,165.62435786712953&#10;Z&#10;"><title>V-Ray (SDK) &#10003;</title></path><path class="default" d="&#10;M 367.26539554219744,158.74332801995254&#10;A180,180 0 0 1 369.4966834926124,176.54858315444363&#10;L 279.7483417463062,183.27429157722182&#10;A90,90 0 0 0 278.6326977710987,174.37166400997626&#10;Z&#10;"><title>Conductor </title></path><path class="default" d="&#10;M 369.4966834926124,176.54858315444363&#10;A180,180 0 0 1 369.9440527601469,194.48752451285313&#10;L 279.97202638007343,192.24376225642658&#10;A90,90 0 0 0 279.7483417463062,183.27429157722182&#10;Z&#10;"><title>cineSync </title></path><path class="success" d="&#10;M 369.9440527601469,194.48752451285313&#10;A180,180 0 0 1 368.60305718803096,212.38186683654735&#10;L 279.3015285940155,201.19093341827366&#10;A90,90 0 0 0 279.97202638007343,192.24376225642658&#10;Z&#10;"><title>Touch Designer &#10003;</title></path><path class="success" d="&#10;M 368.60305718803096,212.38186683654735&#10;A180,180 0 0 1 365.48702419272826,230.0537681121366&#10;L 277.74351209636416,210.0268840560683&#10;A90,90 0 0 0 279.3015285940155,201.19093341827366&#10;Z&#10;"><title>VUE &#10003;</title></path><path class="success" d="&#10;M 365.48702419272826,230.0537681121366&#10;A180,180 0 0 1 360.6269223100837,247.32759704530318&#10;L 275.31346115504186,218.6637985226516&#10;A90,90 0 0 0 277.74351209636416,210.0268840560683&#10;Z&#10;"><title>Plantfactory &#10003;</title></path><path class="default" d="&#10;M 360.6269223100837,247.32759704530318&#10;A180,180 0 0 1 354.07105341610117,264.03167856351007&#10;L 272.0355267080506,227.01583928175504&#10;A90,90 0 0 0 275.31346115504186,218.6637985226516&#10;Z&#10;"><title>Unreal </title></path><path class="default" d="&#10;M 354.07105341610117,264.03167856351007&#10;A180,180 0 0 1 345.88457268119896,280.00000000000006&#10;L 267.9422863405995,235.00000000000003&#10;A90,90 0 0 0 272.0355267080506,227.01583928175504&#10;Z&#10;"><title>Alembic </title></path><path class="success" d="&#10;M 345.88457268119896,280.00000000000006&#10;A180,180 0 0 1 336.1488410288542,295.07386100226216&#10;L 263.07442051442706,242.53693050113108&#10;A90,90 0 0 0 267.9422863405995,235.00000000000003&#10;Z&#10;"><title>OpenImageIO &#10003;</title></path><path class="default" d="&#10;M 336.1488410288542,295.07386100226216&#10;A180,180 0 0 1 324.9606165341922,309.10345076743465&#10;L 257.4803082670961,249.55172538371733&#10;A90,90 0 0 0 263.07442051442706,242.53693050113108&#10;Z&#10;"><title>PyMel </title></path><path class="success" d="&#10;M 324.9606165341922,309.10345076743465&#10;A180,180 0 0 1 312.43109279876546,321.94933692936877&#10;L 251.21554639938273,255.97466846468438&#10;A90,90 0 0 0 257.4803082670961,249.55172538371733&#10;Z&#10;"><title>numpy &#10003;</title></path><path class="default" d="&#10;M 312.43109279876546,321.94933692936877&#10;A180,180 0 0 1 298.6847938585859,333.48385130012605&#10;L 244.34239692929296,261.741925650063&#10;A90,90 0 0 0 251.21554639938273,255.97466846468438&#10;Z&#10;"><title>gaffer </title></path><path class="success" d="&#10;M 298.6847938585859,333.48385130012605&#10;A180,180 0 0 1 283.8583366083096,343.592358693788&#10;L 236.9291683041548,266.796179346894&#10;A90,90 0 0 0 244.34239692929296,261.741925650063&#10;Z&#10;"><title>rez &#10003;</title></path><path class="success" d="&#10;M 283.8583366083096,343.592358693788&#10;A180,180 0 0 1 268.09907304116047,352.17439622243546&#10;L 229.04953652058023,271.08719811121773&#10;A90,90 0 0 0 236.9291683041548,266.796179346894&#10;Z&#10;"><title>Blender &#10003;</title></path><path class="success" d="&#10;M 268.09907304116047,352.17439622243546&#10;A180,180 0 0 1 251.5636257986204,359.1446717414635&#10;L 220.78181289931018,274.57233587073176&#10;A90,90 0 0 0 229.04953652058023,271.08719811121773&#10;Z&#10;"><title>Qt.py &#10003;</title></path><path class="success" d="&#10;M 251.5636257986204,359.1446717414635&#10;A180,180 0 0 1 234.41633158425287,364.433911521234&#10;L 212.20816579212644,277.216955760617&#10;A90,90 0 0 0 220.78181289931018,274.57233587073176&#10;Z&#10;"><title>cgkit &#10003;</title></path><path class="success" d="&#10;M 234.41633158425287,364.433911521234&#10;A180,180 0 0 1 216.82760791171143,367.98954872052315&#10;L 203.4138039558557,278.99477436026154&#10;A90,90 0 0 0 212.20816579212644,277.216955760617&#10;Z&#10;"><title>fileseq &#10003;</title></path><path class="success" d="&#10;M 216.82760791171143,367.98954872052315&#10;A180,180 0 0 1 198.97225941892555,369.77624581940603&#10;L 194.48612970946277,279.88812290970304&#10;A90,90 0 0 0 203.4138039558557,278.99477436026154&#10;Z&#10;"><title>pyside2 &#10003;</title></path><path class="default" d="&#10;M 198.97225941892555,369.77624581940603&#10;A180,180 0 0 1 181.02774058107448,369.77624581940603&#10;L 185.51387029053726,279.88812290970304&#10;A90,90 0 0 0 194.48612970946277,279.88812290970304&#10;Z&#10;"><title>pyopengl </title></path><path class="success" d="&#10;M 181.02774058107448,369.77624581940603&#10;A180,180 0 0 1 163.17239208828857,367.98954872052315&#10;L 176.5861960441443,278.99477436026154&#10;A90,90 0 0 0 185.51387029053726,279.88812290970304&#10;Z&#10;"><title>pyseq &#10003;</title></path><path class="default" d="&#10;M 163.17239208828857,367.98954872052315&#10;A180,180 0 0 1 145.58366841574713,364.433911521234&#10;L 167.79183420787356,277.216955760617&#10;A90,90 0 0 0 176.5861960441443,278.99477436026154&#10;Z&#10;"><title>cortex </title></path><path class="success" d="&#10;M 145.58366841574713,364.433911521234&#10;A180,180 0 0 1 128.43637420137964,359.1446717414635&#10;L 159.21818710068982,274.57233587073176&#10;A90,90 0 0 0 167.79183420787356,277.216955760617&#10;Z&#10;"><title>conda &#10003;</title></path><path class="default" d="&#10;M 128.43637420137964,359.1446717414635&#10;A180,180 0 0 1 111.90092695883955,352.17439622243546&#10;L 150.95046347941977,271.08719811121773&#10;A90,90 0 0 0 159.21818710068982,274.57233587073176&#10;Z&#10;"><title>USD </title></path><path class="success" d="&#10;M 111.90092695883955,352.17439622243546&#10;A180,180 0 0 1 96.14166339169036,343.592358693788&#10;L 143.0708316958452,266.796179346894&#10;A90,90 0 0 0 150.95046347941977,271.08719811121773&#10;Z&#10;"><title>SeExpr &#10003;</title></path><path class="success" d="&#10;M 96.14166339169036,343.592358693788&#10;A180,180 0 0 1 81.31520614141411,333.48385130012605&#10;L 135.65760307070707,261.741925650063&#10;A90,90 0 0 0 143.0708316958452,266.796179346894&#10;Z&#10;"><title>Partio &#10003;</title></path><path class="default" d="&#10;M 81.31520614141411,333.48385130012605&#10;A180,180 0 0 1 67.56890720123454,321.94933692936877&#10;L 128.78445360061727,255.97466846468438&#10;A90,90 0 0 0 135.65760307070707,261.741925650063&#10;Z&#10;"><title>OpenColorIO </title></path><path class="success" d="&#10;M 67.56890720123454,321.94933692936877&#10;A180,180 0 0 1 55.03938346580787,309.10345076743477&#10;L 122.51969173290394,249.55172538371738&#10;A90,90 0 0 0 128.78445360061727,255.97466846468438&#10;Z&#10;"><title>OpenTimelineIO &#10003;</title></path><path class="success" d="&#10;M 55.03938346580787,309.10345076743477&#10;A180,180 0 0 1 43.85115897114591,295.0738610022623&#10;L 116.92557948557295,242.53693050113114&#10;A90,90 0 0 0 122.51969173290394,249.55172538371738&#10;Z&#10;"><title>OpenCue &#10003;</title></path><path class="success" d="&#10;M 43.85115897114591,295.0738610022623&#10;A180,180 0 0 1 34.11542731880098,279.9999999999999&#10;L 112.05771365940049,234.99999999999994&#10;A90,90 0 0 0 116.92557948557295,242.53693050113114&#10;Z&#10;"><title>OpenEXR &#10003;</title></path><path class="success" d="&#10;M 34.11542731880098,279.9999999999999&#10;A180,180 0 0 1 25.928946583898835,264.03167856351007&#10;L 107.96447329194942,227.01583928175504&#10;A90,90 0 0 0 112.05771365940049,234.99999999999994&#10;Z&#10;"><title>OpenVDB &#10003;</title></path><path class="default" d="&#10;M 25.928946583898835,264.03167856351007&#10;A180,180 0 0 1 19.3730776899163,247.32759704530326&#10;L 104.68653884495815,218.66379852265163&#10;A90,90 0 0 0 107.96447329194942,227.01583928175504&#10;Z&#10;"><title>Nuke </title></path><path class="default" d="&#10;M 19.3730776899163,247.32759704530326&#10;A180,180 0 0 1 14.512975807271744,230.0537681121366&#10;L 102.25648790363587,210.0268840560683&#10;A90,90 0 0 0 104.68653884495815,218.66379852265163&#10;Z&#10;"><title>Katana </title></path><path class="default" d="&#10;M 14.512975807271744,230.0537681121366&#10;A180,180 0 0 1 11.39694281196904,212.38186683654743&#10;L 100.69847140598452,201.19093341827372&#10;A90,90 0 0 0 102.25648790363587,210.0268840560683&#10;Z&#10;"><title>Modo </title></path><path class="default" d="&#10;M 11.39694281196904,212.38186683654743&#10;A180,180 0 0 1 10.055947239853083,194.48752451285316&#10;L 100.02797361992654,192.24376225642658&#10;A90,90 0 0 0 100.69847140598452,201.19093341827372&#10;Z&#10;"><title>Mari </title></path><path class="default" d="&#10;M 10.055947239853083,194.48752451285316&#10;A180,180 0 0 1 10.50331650738758,176.5485831544436&#10;L 100.25165825369379,183.2742915772218&#10;A90,90 0 0 0 100.02797361992654,192.24376225642658&#10;Z&#10;"><title>Flix </title></path><path class="success" d="&#10;M 10.50331650738758,176.5485831544436&#10;A180,180 0 0 1 12.734604457802533,158.7433280199526&#10;L 101.36730222890127,174.37166400997629&#10;A90,90 0 0 0 100.25165825369379,183.2742915772218&#10;Z&#10;"><title>Frame.io &#10003;</title></path><path class="default" d="&#10;M 12.734604457802533,158.7433280199526&#10;A180,180 0 0 1 16.727635548997824,141.24871573425906&#10;L 103.36381777449891,165.62435786712953&#10;A90,90 0 0 0 101.36730222890127,174.37166400997629&#10;Z&#10;"><title>ftrack </title></path><path class="default" d="&#10;M 16.727635548997824,141.24871573425906&#10;A180,180 0 0 1 22.442725244043203,124.23861561404897&#10;L 106.2213626220216,157.11930780702448&#10;A90,90 0 0 0 103.36381777449891,165.62435786712953&#10;Z&#10;"><title>Clarisse </title></path><path class="default" d="&#10;M 22.442725244043203,124.23861561404897&#10;A180,180 0 0 1 29.823074413935643,107.88208167643067&#10;L 109.91153720696782,148.94104083821534&#10;A90,90 0 0 0 106.2213626220216,157.11930780702448&#10;Z&#10;"><title>Massive Prime </title></path><path class="default" d="&#10;M 29.823074413935643,107.88208167643067&#10;A180,180 0 0 1 38.79533383286116,92.34167250416326&#10;L 114.39766691643058,141.17083625208164&#10;A90,90 0 0 0 109.91153720696782,148.94104083821534&#10;Z&#10;"><title>Cinema4D </title></path><path class="default" d="&#10;M 38.79533383286116,92.34167250416326&#10;A180,180 0 0 1 49.27033315575463,77.771835665428&#10;L 119.63516657787731,133.885917832714&#10;A90,90 0 0 0 114.39766691643058,141.17083625208164&#10;Z&#10;"><title>Qube </title></path><path class="success" d="&#10;M 49.27033315575463,77.771835665428&#10;A180,180 0 0 1 61.143967133250726,64.31737274450687&#10;L 125.57198356662536,127.15868637225344&#10;A90,90 0 0 0 119.63516657787731,133.885917832714&#10;Z&#10;"><title>Renderman (SDK) &#10003;</title></path><path class="default" d="&#10;M 61.143967133250726,64.31737274450687&#10;A180,180 0 0 1 74.2982302564229,52.11200023858399&#10;L 132.14911512821146,121.056000119292&#10;A90,90 0 0 0 125.57198356662536,127.15868637225344&#10;Z&#10;"><title>Tractor </title></path><path class="default" d="&#10;M 74.2982302564229,52.11200023858399&#10;A180,180 0 0 1 88.60238954854793,41.27702062312099&#10;L 139.30119477427397,115.6385103115605&#10;A90,90 0 0 0 132.14911512821146,121.056000119292&#10;Z&#10;"><title>3DEqualizer </title></path><path class="success" d="&#10;M 88.60238954854793,41.27702062312099&#10;A180,180 0 0 1 103.91428384816267,31.920116793358915&#10;L 146.95714192408133,110.96005839667946&#10;A90,90 0 0 0 139.30119477427397,115.6385103115605&#10;Z&#10;"><title>shotgun_api3 &#10003;</title></path><path class="default" d="&#10;M 103.91428384816267,31.920116793358915&#10;A180,180 0 0 1 120.08173667055496,24.134281863326635&#10;L 155.04086833527748,107.06714093166332&#10;A90,90 0 0 0 146.95714192408133,110.96005839667946&#10;Z&#10;"><title>SGTK </title></path><path class="default" d="&#10;M 120.08173667055496,24.134281863326635&#10;A180,180 0 0 1 136.94406860603715,17.996894958494693&#10;L 163.47203430301857,103.99844747924735&#10;A90,90 0 0 0 155.04086833527748,107.06714093166332&#10;Z&#10;"><title>Houdini </title></path><path class="default" d="&#10;M 136.94406860603715,17.996894958494693&#10;A180,180 0 0 1 154.33369422410843,13.568952187262113&#10;L 172.1668471120542,101.78447609363106&#10;A90,90 0 0 0 163.47203430301857,103.99844747924735&#10;Z&#10;"><title>pftrack </title></path><path class="default" d="&#10;M 154.33369422410843,13.568952187262113&#10;A180,180 0 0 1 172.0777876127529,10.894460434227767&#10;L 181.03889380637645,100.44723021711388&#10;A90,90 0 0 0 172.1668471120542,101.78447609363106&#10;Z&#10;"><title>Unity </title></path><path class="success" d="&#10;M 172.0777876127529,10.894460434227767&#10;A180,180 0 0 1 189.99999999999997,10.0&#10;L 189.99999999999997,100.0&#10;A90,90 0 0 0 181.03889380637645,100.44723021711388&#10;Z&#10;"><title>Meshroom &#10003;</title></path><text dominant-baseline="central" fill="#333333" font-family="&quot;Helvetica Neue&quot;,Helvetica,Arial,sans-serif" font-size="40" text-anchor="middle" x="190" y="170">31</text><line stroke="#333333" stroke-width="2" x1="150" x2="230" y1="190" y2="190" /><text dominant-baseline="central" fill="#333333" font-family="&quot;Helvetica Neue&quot;,Helvetica,Arial,sans-serif" font-size="40" text-anchor="middle" x="190" y="210">63</text></svg>